<svg width="512" height="388" viewBox="0 0 512 388" fill="none" xmlns="http://www.w3.org/2000/svg">
<path d="M426.842 69.515C422.7 69.515 419.342 66.157 419.342 62.015C419.342 57.873 422.7 54.515 426.842 54.515C430.984 54.515 434.342 57.873 434.342 62.015C434.342 66.157 430.985 69.515 426.842 69.515Z" fill="#E07A5F"/>
<path d="M426.842 116.139C422.7 116.139 419.342 112.781 419.342 108.639C419.342 104.497 422.7 101.139 426.842 101.139C430.984 101.139 434.342 104.497 434.342 108.639C434.342 112.781 430.985 116.139 426.842 116.139Z" fill="#E07A5F"/>
<path d="M85.158 69.515C81.016 69.515 77.658 66.157 77.658 62.015C77.658 57.873 81.016 54.515 85.158 54.515C89.3 54.515 92.658 57.873 92.658 62.015C92.658 66.157 89.3 69.515 85.158 69.515Z" fill="#E07A5F"/>
<path d="M85.158 116.139C81.016 116.139 77.658 112.781 77.658 108.639C77.658 104.497 81.016 101.139 85.158 101.139C89.3 101.139 92.658 104.497 92.658 108.639C92.658 112.781 89.3 116.139 85.158 116.139Z" fill="#E07A5F"/>
<path d="M504.5 248.119C508.642 248.119 512 244.761 512 240.619V194.029C512 189.887 508.642 186.529 504.5 186.529H449.87V139.405H473.435C477.577 139.405 480.935 136.047 480.935 131.905L480.939 38.719C480.939 34.577 477.581 31.219 473.439 31.219H449.869V7.65899C449.869 3.51699 446.511 0.158997 442.369 0.158997H411.309C407.167 0.158997 403.809 3.51699 403.809 7.65899V31.219H198.6C194.458 31.219 191.1 34.577 191.1 38.719C191.1 42.861 194.458 46.219 198.6 46.219H465.94V77.809H46.06V46.219H165.91C170.052 46.219 173.41 42.861 173.41 38.719C173.41 34.577 170.052 31.219 165.91 31.219H108.19V7.65899C108.19 3.51699 104.832 0.158997 100.69 0.158997H69.63C65.488 0.158997 62.13 3.51699 62.13 7.65899V31.219H38.56C34.418 31.219 31.06 34.577 31.06 38.719L31.064 131.905C31.064 136.047 34.422 139.405 38.564 139.405H62.13V186.529H7.5C3.358 186.529 0 189.887 0 194.029V240.619C0 244.761 3.358 248.119 7.5 248.119H31.064V372.841H7.502C3.36 372.841 0.002 376.199 0.002 380.341C0.002 384.483 3.36 387.841 7.502 387.841H504.498C508.64 387.841 511.998 384.483 511.998 380.341C511.998 376.199 508.64 372.841 504.498 372.841H480.935V248.119H504.5ZM434.87 31.219H418.81V15.159H434.87V31.219ZM77.13 15.159H93.19V31.219H77.13V15.159ZM434.87 186.529H418.81V139.405H434.87V186.529ZM46.064 124.405V92.873H465.935V124.405H46.064ZM77.13 139.405H93.19V186.529H77.13V139.405ZM15 201.529H327.25C331.392 201.529 334.75 198.171 334.75 194.029C334.75 189.887 331.392 186.529 327.25 186.529H108.19V139.405H403.81V186.529H359.93C355.788 186.529 352.43 189.887 352.43 194.029C352.43 198.171 355.788 201.529 359.93 201.529H497V233.119H15V201.529ZM239.66 310.779H77.13V294.449H434.87V310.779H272.34C268.198 310.779 264.84 314.137 264.84 318.279C264.84 322.421 268.198 325.779 272.34 325.779H434.874V372.841H77.126V325.779H239.66C243.802 325.779 247.16 322.421 247.16 318.279C247.16 314.137 243.802 310.779 239.66 310.779ZM465.936 341.78H449.874V248.123H465.936V341.78ZM62.126 341.78H46.064V248.123H62.126V341.78ZM46.064 356.78H62.126V372.841H46.064V356.78ZM449.874 372.841V356.78H465.936V372.841H449.874ZM434.874 279.449H77.126V248.119H434.873V279.449H434.874Z" fill="#E07A5F"/>
</svg>
