<svg width="504" height="504" viewBox="0 0 504 504" fill="none" xmlns="http://www.w3.org/2000/svg">
<path d="M51.006 503.287H453.638C458.272 503.287 462.027 499.532 462.027 494.902C462.027 490.268 458.272 486.513 453.638 486.513H443.707C446.147 479.935 445.678 472.631 442.423 466.42C439.163 460.205 433.424 455.669 426.628 453.932C427.838 450.961 428.463 447.779 428.474 444.57V25.1638C428.474 11.2663 417.208 0 403.311 0H101.337C87.4361 0 76.1698 11.2663 76.1698 25.1638V444.57C76.1815 447.779 76.8061 450.961 78.0163 453.932C71.2198 455.669 65.4813 460.205 62.2216 466.42C58.9659 472.631 58.5013 479.935 60.9373 486.513H51.006C46.3762 486.513 42.6168 490.268 42.6168 494.902C42.6168 499.532 46.3762 503.287 51.006 503.287V503.287ZM92.9483 25.1638C92.9483 20.53 96.7037 16.7745 101.337 16.7745H403.311C407.94 16.7745 411.696 20.53 411.696 25.1638V444.57C411.696 449.204 407.94 452.96 403.311 452.96H101.337C96.7037 452.96 92.9483 449.204 92.9483 444.57V25.1638ZM76.1698 478.123C76.1698 473.49 79.9253 469.734 84.559 469.734H420.085C424.719 469.734 428.474 473.49 428.474 478.123C428.474 482.757 424.719 486.513 420.085 486.513H84.559C79.9253 486.513 76.1698 482.757 76.1698 478.123Z" fill="#E07A5F"/>
<path d="M9.06767 503.986C9.30189 503.998 9.53612 503.998 9.77035 503.986L18.1596 503.287C22.7934 502.901 26.2326 498.833 25.8461 494.199C25.4596 489.565 21.3919 486.126 16.7581 486.513L8.36889 487.215C3.739 487.407 0.135816 491.314 0.327101 495.948C0.514483 500.582 4.42607 504.181 9.05595 503.994L9.06767 503.986Z" fill="#E07A5F"/>
<path d="M495.576 486.513H487.191C482.557 486.513 478.802 490.268 478.802 494.902C478.802 499.532 482.557 503.287 487.191 503.287H495.576C500.21 503.287 503.966 499.532 503.966 494.902C503.966 490.268 500.21 486.513 495.576 486.513V486.513Z" fill="#E07A5F"/>
<path d="M218.771 360.69H151.665C147.031 360.69 143.276 364.445 143.276 369.079C143.276 392.24 162.053 411.017 185.218 411.017C208.379 411.017 227.156 392.24 227.156 369.079C227.156 364.445 223.401 360.69 218.771 360.69V360.69ZM185.218 394.243C174.557 394.231 165.055 387.513 161.487 377.464H208.945C205.381 387.513 195.879 394.231 185.218 394.243Z" fill="#E07A5F"/>
<path d="M319.426 226.478C342.579 226.451 361.341 207.689 361.368 184.54C361.368 179.906 357.613 176.15 352.979 176.15H285.873C281.243 176.15 277.488 179.906 277.488 184.54C277.515 207.689 296.277 226.451 319.426 226.478ZM343.157 192.929C339.605 202.989 330.095 209.719 319.426 209.719C308.757 209.719 299.247 202.989 295.699 192.929H343.157Z" fill="#E07A5F"/>
<path d="M361.368 343.915H327.815C318.552 343.915 311.041 351.426 311.041 360.69V377.464C311.041 386.732 318.552 394.243 327.815 394.243H361.368C370.632 394.243 378.143 386.732 378.143 377.464V360.69C378.143 351.426 370.632 343.915 361.368 343.915V343.915ZM327.815 377.464V360.69H361.368V377.464H327.815Z" fill="#E07A5F"/>
<path d="M319.426 100.659H352.979C362.247 100.659 369.758 93.1481 369.758 83.8805V67.106C369.758 57.8384 362.247 50.3275 352.979 50.3275H319.426C310.162 50.3275 302.652 57.8384 302.652 67.106V83.8805C302.652 93.1481 310.162 100.659 319.426 100.659ZM319.426 67.106H352.979V83.8805H319.426V67.106Z" fill="#E07A5F"/>
<path d="M151.665 260.031H185.218C194.482 260.031 201.993 252.52 201.993 243.256V226.478C201.993 217.214 194.482 209.703 185.218 209.703H151.665C142.397 209.703 134.887 217.214 134.887 226.478V243.256C134.887 252.52 142.397 260.031 151.665 260.031ZM151.665 226.478H185.218V243.256H151.665V226.478Z" fill="#E07A5F"/>
<path d="M260.709 335.526C263.653 335.526 266.382 333.98 267.9 331.458L293.064 289.516C294.622 286.924 294.661 283.699 293.173 281.068C291.686 278.437 288.899 276.809 285.873 276.809H235.546C232.524 276.809 229.733 278.437 228.246 281.068C226.758 283.699 226.801 286.924 228.359 289.516L253.523 331.458C255.037 333.98 257.766 335.526 260.709 335.526ZM271.054 293.584L260.709 310.831L250.368 293.584H271.054Z" fill="#E07A5F"/>
<path d="M178.027 138.53C179.546 141.051 182.275 142.597 185.218 142.597C188.161 142.597 190.89 141.051 192.405 138.53L217.569 96.5913C219.126 93.9992 219.169 90.7707 217.682 88.1396C216.194 85.5084 213.403 83.8806 210.382 83.8806H160.054C157.029 83.8806 154.241 85.5084 152.754 88.1396C151.267 90.7707 151.306 93.9992 152.863 96.5913L178.027 138.53ZM195.559 100.659L185.218 117.902L174.873 100.659H195.559Z" fill="#E07A5F"/>
<path d="M294.262 142.597H327.815C332.449 142.597 336.204 138.842 336.204 134.212C336.204 129.578 332.449 125.823 327.815 125.823H294.262C289.628 125.823 285.873 129.578 285.873 134.212C285.873 138.842 289.628 142.597 294.262 142.597V142.597Z" fill="#E07A5F"/>
<path d="M336.205 293.584C336.205 298.218 339.96 301.973 344.59 301.973H378.143C382.777 301.973 386.532 298.218 386.532 293.584C386.532 288.954 382.777 285.198 378.143 285.198H344.59C339.96 285.198 336.205 288.954 336.205 293.584V293.584Z" fill="#E07A5F"/>
<path d="M143.276 318.748H185.218C189.848 318.748 193.603 314.992 193.603 310.362C193.603 305.728 189.848 301.973 185.218 301.973H143.276C138.642 301.973 134.887 305.728 134.887 310.362C134.887 314.992 138.642 318.748 143.276 318.748Z" fill="#E07A5F"/>
<path d="M302.652 411.017H260.709C256.079 411.017 252.324 414.773 252.324 419.407C252.324 424.04 256.079 427.796 260.709 427.796H302.652C307.285 427.796 311.041 424.04 311.041 419.407C311.041 414.773 307.285 411.017 302.652 411.017V411.017Z" fill="#E07A5F"/>
<path d="M227.156 176.15C227.156 171.517 223.401 167.761 218.771 167.761H185.218C180.584 167.761 176.829 171.517 176.829 176.15C176.829 180.784 180.584 184.54 185.218 184.54H218.771C223.401 184.54 227.156 180.784 227.156 176.15Z" fill="#E07A5F"/>
<path d="M185.218 50.3275H227.156C231.79 50.3275 235.546 46.5721 235.546 41.9422C235.546 37.3084 231.79 33.553 227.156 33.553H185.218C180.584 33.553 176.829 37.3084 176.829 41.9422C176.829 46.5721 180.584 50.3275 185.218 50.3275Z" fill="#E07A5F"/>
<path d="M118.112 167.761C122.746 167.761 126.501 164.006 126.501 159.376V100.659C126.501 96.0252 122.746 92.2698 118.112 92.2698C113.478 92.2698 109.723 96.0252 109.723 100.659V159.376C109.723 164.006 113.478 167.761 118.112 167.761Z" fill="#E07A5F"/>
<path d="M126.501 67.106C126.501 71.7359 122.746 75.4913 118.112 75.4913C113.478 75.4913 109.723 71.7359 109.723 67.106C109.723 62.4722 113.478 58.7168 118.112 58.7168C122.746 58.7168 126.501 62.4722 126.501 67.106Z" fill="#E07A5F"/>
</svg>
