<svg width="376" height="442" viewBox="0 0 376 442" fill="none" xmlns="http://www.w3.org/2000/svg">
<path d="M288 90H222.948L230.656 78.438C231.439 77.2645 231.897 75.905 231.985 74.4973C232.073 73.0896 231.787 71.6836 231.156 70.422L223.156 54.422C222.343 52.7934 220.998 51.4912 219.344 50.7306C217.691 49.97 215.827 49.7965 214.061 50.239L192 55.754V42C192 39.8783 191.157 37.8434 189.657 36.3431C188.157 34.8429 186.122 34 184 34H136C133.878 34 131.843 34.8429 130.343 36.3431C128.843 37.8434 128 39.8783 128 42V90H112C109.878 90 107.843 90.8428 106.343 92.3431C104.843 93.8434 104 95.8783 104 98C104.015 112.085 108.155 125.857 115.908 137.615C123.662 149.373 134.69 158.603 147.63 164.165L20.2 234.958L20.158 234.98L20.111 235.007C18.8642 235.7 17.8255 236.714 17.1026 237.943C16.3797 239.173 15.999 240.574 16 242V394H14C10.2882 394.004 6.72954 395.48 4.10489 398.105C1.48024 400.73 0.00397056 404.288 0 408V434C0 436.122 0.842856 438.157 2.34315 439.657C3.84344 441.157 5.87827 442 8 442H168C170.122 442 172.157 441.157 173.657 439.657C175.157 438.157 176 436.122 176 434V408C175.996 404.288 174.52 400.73 171.895 398.105C169.27 395.48 165.712 394.004 162 394H160V245.07L227.646 169.907C246.079 168.951 263.443 160.96 276.16 147.582C288.877 134.204 295.978 116.458 296 98C296 95.8783 295.157 93.8434 293.657 92.3431C292.157 90.8428 290.122 90 288 90ZM192 72.246L211.714 67.317L214.769 73.425L203.719 90H192V72.246ZM144 50H176V90H144V50ZM32 250H144V394H32V250ZM160 426H16V410H160V426ZM148.437 234H54.873L170.49 169.768C172.311 169.907 174.144 170 176 170H206.037L148.437 234ZM224 154H176C162.538 153.983 149.531 149.125 139.355 140.313C129.178 131.5 122.511 119.321 120.57 106H279.43C277.489 119.321 270.822 131.5 260.645 140.313C250.469 149.125 237.462 153.983 224 154Z" fill="#E07A5F"/>
<path d="M112 296.111V274C112 271.878 111.157 269.843 109.657 268.343C108.157 266.843 106.122 266 104 266H72C69.8783 266 67.8434 266.843 66.3431 268.343C64.8428 269.843 64 271.878 64 274V296.111L56.845 310.422C56.2892 311.533 55.9999 312.758 56 314V354C56.0071 360.363 58.538 366.463 63.0373 370.963C67.5366 375.462 73.637 377.993 80 378H96C102.363 377.993 108.463 375.462 112.963 370.963C117.462 366.463 119.993 360.363 120 354V314C120 312.758 119.711 311.533 119.155 310.422L112 296.111ZM104 354C103.998 356.121 103.154 358.154 101.654 359.654C100.154 361.154 98.121 361.998 96 362H80C77.879 361.998 75.8456 361.154 74.3458 359.654C72.846 358.154 72.0024 356.121 72 354V315.889L79.155 301.578C79.7108 300.467 80.0001 299.242 80 298V282H96V298C95.9999 299.242 96.2892 300.467 96.845 301.578L104 315.889V354Z" fill="#E07A5F"/>
<path d="M265.23 42.52C267.05 42.5193 268.814 41.8984 270.234 40.7597C271.653 39.621 272.641 38.0326 273.036 36.2564C273.431 34.4803 273.209 32.6226 272.406 30.9898C271.603 29.357 270.268 28.0467 268.62 27.2751C266.972 26.5034 265.11 26.3165 263.342 26.7452C261.574 27.1739 260.004 28.1926 258.893 29.6332C257.782 31.0738 257.194 32.8503 257.228 34.6695C257.262 36.4887 257.915 38.2419 259.08 39.64C259.83 40.5428 260.77 41.269 261.833 41.7668C262.896 42.2646 264.056 42.5218 265.23 42.52V42.52Z" fill="#E07A5F"/>
<path d="M366.2 35.47C367.856 34.4708 369.094 32.9053 369.685 31.0634C370.276 29.2215 370.179 27.2279 369.413 25.4517C368.647 23.6755 367.264 22.237 365.518 21.4026C363.773 20.5682 361.785 20.3943 359.922 20.9132C358.058 21.4321 356.446 22.6086 355.383 24.2248C354.32 25.8411 353.879 27.7877 354.141 29.7042C354.403 31.6207 355.351 33.3773 356.809 34.6488C358.267 35.9203 360.136 36.6206 362.07 36.62C363.526 36.6196 364.954 36.2219 366.2 35.47Z" fill="#E07A5F"/>
<path d="M282.45 28.16C284.27 28.1593 286.034 27.5384 287.454 26.3997C288.873 25.261 289.861 23.6726 290.256 21.8964C290.651 20.1203 290.429 18.2626 289.626 16.6298C288.823 14.997 287.488 13.6867 285.84 12.9151C284.192 12.1434 282.33 11.9565 280.562 12.3852C278.794 12.8139 277.224 13.8326 276.113 15.2732C275.002 16.7138 274.414 18.4903 274.448 20.3095C274.482 22.1287 275.135 23.8819 276.3 25.28C277.051 26.1815 277.992 26.9068 279.054 27.4045C280.117 27.9022 281.276 28.1601 282.45 28.16Z" fill="#E07A5F"/>
<path d="M324.28 0.599996C322.158 0.610605 320.128 1.46364 318.635 2.97143C317.142 4.47922 316.309 6.51826 316.32 8.64C316.331 10.7617 317.184 12.7923 318.691 14.2851C320.199 15.7779 322.238 16.6106 324.36 16.6C324.38 16.6 324.41 16.59 324.43 16.59C325.503 16.6165 326.571 16.4268 327.569 16.0321C328.567 15.6374 329.476 15.0457 330.241 14.2925C331.006 13.5392 331.611 12.6397 332.021 11.6476C332.431 10.6554 332.637 9.59088 332.627 8.5174C332.617 7.44392 332.391 6.38344 331.963 5.39915C331.534 4.41485 330.912 3.52687 330.133 2.78809C329.354 2.04932 328.435 1.47486 327.429 1.09894C326.423 0.723028 325.353 0.553343 324.28 0.599996V0.599996Z" fill="#E07A5F"/>
<path d="M349.74 6.33001C348.343 5.5875 346.757 5.27598 345.183 5.43484C343.608 5.5937 342.117 6.2158 340.896 7.22248C339.675 8.22916 338.78 9.57519 338.325 11.0904C337.869 12.6056 337.873 14.2219 338.336 15.7349C338.799 17.2479 339.7 18.5896 340.925 19.5905C342.151 20.5914 343.645 21.2064 345.22 21.3577C346.795 21.5091 348.38 21.19 349.774 20.4409C351.167 19.6917 352.307 18.5462 353.05 17.149C354.044 15.2751 354.254 13.0831 353.634 11.0546C353.013 9.02598 351.613 7.3267 349.74 6.33001V6.33001Z" fill="#E07A5F"/>
<path d="M300.25 1.95001C298.334 2.3867 296.645 3.51349 295.507 5.11544C294.368 6.7174 293.859 8.68242 294.077 10.6357C294.294 12.589 295.223 14.3938 296.686 15.7059C298.15 17.0181 300.045 17.7457 302.01 17.75C302.605 17.7472 303.199 17.6801 303.78 17.55C304.828 17.3419 305.824 16.9259 306.708 16.3267C307.593 15.7275 308.348 14.9572 308.93 14.0613C309.512 13.1654 309.909 12.1619 310.097 11.1102C310.285 10.0584 310.26 8.97973 310.024 7.93769C309.788 6.89565 309.346 5.9114 308.724 5.04301C308.101 4.17463 307.311 3.4397 306.4 2.8816C305.489 2.3235 304.476 1.95353 303.419 1.79353C302.363 1.63353 301.285 1.68674 300.25 1.95001Z" fill="#E07A5F"/>
<path d="M248 56.869C252.418 56.869 256 53.2873 256 48.869C256 44.4507 252.418 40.869 248 40.869C243.582 40.869 240 44.4507 240 48.869C240 53.2873 243.582 56.869 248 56.869Z" fill="#E07A5F"/>
<path d="M368 57.869C372.418 57.869 376 54.2873 376 49.869C376 45.4507 372.418 41.869 368 41.869C363.582 41.869 360 45.4507 360 49.869C360 54.2873 363.582 57.869 368 57.869Z" fill="#E07A5F"/>
</svg>
