<svg width="334" height="486" viewBox="0 0 334 486" fill="none" xmlns="http://www.w3.org/2000/svg">
<path d="M7.86472 411.891C6.02971 411.891 4.26986 411.162 2.97231 409.864C1.67476 408.567 0.945801 406.807 0.945801 404.972V377.642C0.945801 375.807 1.67476 374.047 2.97231 372.75C4.26986 371.452 6.02971 370.723 7.86472 370.723C9.69973 370.723 11.4596 371.452 12.7571 372.75C14.0547 374.047 14.7836 375.807 14.7836 377.642V404.972C14.7836 406.807 14.0547 408.567 12.7571 409.864C11.4596 411.162 9.69973 411.891 7.86472 411.891Z" fill="#E07A5F"/>
<path d="M7.86472 343.048C6.02971 343.048 4.26986 342.319 2.97231 341.021C1.67476 339.724 0.945801 337.964 0.945801 336.129V308.799C0.945801 306.964 1.67476 305.204 2.97231 303.907C4.26986 302.609 6.02971 301.88 7.86472 301.88C9.69973 301.88 11.4596 302.609 12.7571 303.907C14.0547 305.204 14.7836 306.964 14.7836 308.799V336.129C14.7836 337.964 14.0547 339.724 12.7571 341.021C11.4596 342.319 9.69973 343.048 7.86472 343.048Z" fill="#E07A5F"/>
<path d="M312.297 485.162H21.7026C16.1975 485.162 10.918 482.975 7.02531 479.083C3.13266 475.19 0.945801 469.91 0.945801 464.405V446.485C0.945801 444.65 1.67476 442.891 2.97231 441.593C4.26986 440.295 6.02971 439.567 7.86472 439.567C9.69973 439.567 11.4596 440.295 12.7571 441.593C14.0547 442.891 14.7836 444.65 14.7836 446.485V464.405C14.7836 466.24 15.5126 468 16.8101 469.298C18.1077 470.595 19.8675 471.324 21.7026 471.324H312.297C314.132 471.324 315.892 470.595 317.19 469.298C318.487 468 319.216 466.24 319.216 464.405V21.5946C319.216 19.7596 318.487 17.9997 317.19 16.7022C315.892 15.4046 314.132 14.6757 312.297 14.6757H21.7026C19.8675 14.6757 18.1077 15.4046 16.8101 16.7022C15.5126 17.9997 14.7836 19.7596 14.7836 21.5946V267.285C14.7836 269.12 14.0547 270.88 12.7571 272.178C11.4596 273.475 9.69973 274.204 7.86472 274.204C6.02971 274.204 4.26986 273.475 2.97231 272.178C1.67476 270.88 0.945801 269.12 0.945801 267.285V21.5946C0.945801 16.0896 3.13266 10.81 7.02531 6.91734C10.918 3.0247 16.1975 0.83783 21.7026 0.83783H312.297C317.802 0.83783 323.082 3.0247 326.974 6.91734C330.867 10.81 333.054 16.0896 333.054 21.5946V464.405C333.054 469.91 330.867 475.19 326.974 479.083C323.082 482.975 317.802 485.162 312.297 485.162Z" fill="#E07A5F"/>
<path d="M263.865 70.027H70.1352C68.3002 70.027 66.5404 69.2981 65.2428 68.0005C63.9453 66.703 63.2163 64.9431 63.2163 63.1081V7.75675C63.2163 5.92174 63.9453 4.16188 65.2428 2.86433C66.5404 1.56678 68.3002 0.83783 70.1352 0.83783H263.865C265.7 0.83783 267.46 1.56678 268.757 2.86433C270.055 4.16188 270.784 5.92174 270.784 7.75675V63.1081C270.784 64.9431 270.055 66.703 268.757 68.0005C267.46 69.2981 265.7 70.027 263.865 70.027ZM77.0541 56.1892H256.946V14.6757H77.0541V56.1892Z" fill="#E07A5F"/>
<path d="M167 118.459C152.325 118.443 138.256 112.606 127.879 102.229C117.502 91.8524 111.665 77.7831 111.648 63.1081C111.648 61.2731 112.377 59.5132 113.675 58.2157C114.972 56.9181 116.732 56.1892 118.567 56.1892C120.402 56.1892 122.162 56.9181 123.46 58.2157C124.757 59.5132 125.486 61.2731 125.486 63.1081C125.486 74.1182 129.86 84.6773 137.645 92.4626C145.431 100.248 155.99 104.622 167 104.622C178.01 104.622 188.569 100.248 196.354 92.4626C204.14 84.6773 208.513 74.1182 208.513 63.1081C208.513 61.2731 209.242 59.5132 210.54 58.2157C211.837 56.9181 213.597 56.1892 215.432 56.1892C217.267 56.1892 219.027 56.9181 220.325 58.2157C221.622 59.5132 222.351 61.2731 222.351 63.1081C222.335 77.7831 216.498 91.8524 206.121 102.229C195.744 112.606 181.675 118.443 167 118.459Z" fill="#E07A5F"/>
<path d="M263.865 485.162H70.1352C68.3002 485.162 66.5404 484.433 65.2428 483.136C63.9453 481.838 63.2163 480.078 63.2163 478.243V422.892C63.2163 421.057 63.9453 419.297 65.2428 418C66.5404 416.702 68.3002 415.973 70.1352 415.973H263.865C265.7 415.973 267.46 416.702 268.757 418C270.055 419.297 270.784 421.057 270.784 422.892V478.243C270.784 480.078 270.055 481.838 268.757 483.136C267.46 484.433 265.7 485.162 263.865 485.162ZM77.0541 471.324H256.946V429.811H77.0541V471.324Z" fill="#E07A5F"/>
<path d="M215.432 429.811C213.597 429.811 211.837 429.082 210.54 427.784C209.242 426.487 208.513 424.727 208.513 422.892C208.513 411.882 204.14 401.323 196.354 393.537C188.569 385.752 178.01 381.378 167 381.378C155.99 381.378 145.431 385.752 137.645 393.537C129.86 401.323 125.486 411.882 125.486 422.892C125.486 424.727 124.757 426.487 123.46 427.784C122.162 429.082 120.402 429.811 118.567 429.811C116.732 429.811 114.972 429.082 113.675 427.784C112.377 426.487 111.648 424.727 111.648 422.892C111.648 408.212 117.48 394.133 127.86 383.753C138.241 373.372 152.32 367.541 167 367.541C181.68 367.541 195.759 373.372 206.139 383.753C216.519 394.133 222.351 408.212 222.351 422.892C222.351 424.727 221.622 426.487 220.325 427.784C219.027 429.082 217.267 429.811 215.432 429.811Z" fill="#E07A5F"/>
<path d="M326.135 249.919H7.86472C6.02971 249.919 4.26986 249.19 2.97231 247.892C1.67476 246.595 0.945801 244.835 0.945801 243C0.945801 241.165 1.67476 239.405 2.97231 238.108C4.26986 236.81 6.02971 236.081 7.86472 236.081H326.135C327.97 236.081 329.73 236.81 331.027 238.108C332.325 239.405 333.054 241.165 333.054 243C333.054 244.835 332.325 246.595 331.027 247.892C329.73 249.19 327.97 249.919 326.135 249.919Z" fill="#E07A5F"/>
<path d="M167 315.649C152.631 315.649 138.585 311.388 126.638 303.405C114.691 295.422 105.38 284.076 99.8812 270.801C94.3826 257.527 92.9439 242.919 95.747 228.827C98.5502 214.735 105.469 201.79 115.629 191.63C125.79 181.47 138.734 174.55 152.827 171.747C166.919 168.944 181.526 170.383 194.801 175.881C208.076 181.38 219.422 190.692 227.405 202.639C235.388 214.586 239.648 228.631 239.648 243C239.626 262.261 231.965 280.727 218.346 294.346C204.726 307.966 186.261 315.627 167 315.649ZM167 184.189C155.368 184.189 143.998 187.638 134.326 194.101C124.655 200.563 117.117 209.748 112.666 220.494C108.214 231.24 107.05 243.065 109.319 254.473C111.588 265.882 117.189 276.361 125.414 284.586C133.639 292.81 144.118 298.412 155.526 300.681C166.935 302.95 178.759 301.785 189.506 297.334C200.252 292.883 209.437 285.345 215.899 275.674C222.361 266.002 225.811 254.632 225.811 243C225.792 227.408 219.59 212.46 208.565 201.435C197.54 190.41 182.592 184.208 167 184.189V184.189Z" fill="#E07A5F"/>
</svg>
