<svg width="512" height="390" viewBox="0 0 512 390" fill="none" xmlns="http://www.w3.org/2000/svg">
<path d="M497 0H15C6.716 0 0 6.716 0 15V375C0 383.284 6.716 390 15 390C23.284 390 30 383.284 30 375V330H90V375C90 383.284 96.716 390 105 390C113.284 390 120 383.284 120 375V30H181V182.58C163.541 188.772 151 205.445 151 225C151 249.813 171.187 270 196 270C220.813 270 241 249.813 241 225C241 205.445 228.459 188.772 211 182.58V30H301V182.58C283.541 188.772 271 205.445 271 225C271 249.813 291.187 270 316 270C340.813 270 361 249.813 361 225C361 205.445 348.459 188.772 331 182.58V30H392V375C392 383.284 398.716 390 407 390C415.284 390 422 383.284 422 375V270H482V375C482 383.284 488.716 390 497 390C505.284 390 512 383.284 512 375V15C512 6.716 505.284 0 497 0ZM90 180H30V150H90V180ZM30 210H90V240H30V210ZM90 120H30V90H90V120ZM30 300V270H90V300H30ZM90 60H30V30H90V60ZM196 240C187.729 240 181 233.271 181 225C181 216.729 187.729 210 196 210C204.271 210 211 216.729 211 225C211 233.271 204.271 240 196 240ZM316 240C307.729 240 301 233.271 301 225C301 216.729 307.729 210 316 210C324.271 210 331 216.729 331 225C331 233.271 324.271 240 316 240ZM482 30V120H422V30H482ZM422 240V150H482V240H422Z" fill="#E07A5F"/>
</svg>
