<svg width="512" height="512" viewBox="0 0 512 512" fill="none" xmlns="http://www.w3.org/2000/svg">
<path d="M215.556 245.736C215.556 223.586 197.535 205.565 175.385 205.565C153.235 205.565 135.214 223.586 135.214 245.736C135.214 267.886 153.235 285.907 175.385 285.907C197.535 285.907 215.556 267.887 215.556 245.736ZM150.214 245.736C150.214 231.857 161.506 220.565 175.385 220.565C189.264 220.565 200.556 231.857 200.556 245.736C200.556 259.615 189.264 270.907 175.385 270.907C161.506 270.907 150.214 259.615 150.214 245.736Z" fill="#E07A5F"/>
<path d="M186.203 108.382C190.346 108.382 193.703 105.025 193.703 100.882C193.703 96.739 190.346 93.382 186.203 93.382H164.565C160.422 93.382 157.065 96.739 157.065 100.882C157.065 105.025 160.422 108.382 164.565 108.382H186.203Z" fill="#E07A5F"/>
<path d="M504.5 497H447.212C448.895 495.224 450.425 493.271 451.763 491.147C457.105 482.673 458.826 472.627 456.613 462.858C452.701 445.595 439.126 439.022 438.532 438.475L404.523 417.033L440.041 394.64C448.514 389.298 454.399 380.976 456.613 371.206C458.827 361.437 457.104 351.391 451.762 342.918C444.414 331.263 435.723 329.472 404.529 308.81L440.04 286.424C457.531 275.397 462.79 252.195 451.764 234.702C445.073 224.09 433.51 217.197 419.099 217.197H357.757C353.614 217.197 350.257 220.554 350.257 224.697C350.257 228.84 353.614 232.197 357.757 232.197H385.419L335.505 263.664H290.501V232.197H327.771C331.914 232.197 335.271 228.84 335.271 224.697C335.271 220.554 331.914 217.197 327.771 217.197H289.775C287.121 206.53 277.465 198.601 265.989 198.601H260.694V167.926V139.88H288.814C291.982 139.88 294.808 137.89 295.876 134.907C296.943 131.924 296.022 128.593 293.573 126.583L182.885 35.728V7.5C182.885 3.357 179.528 0 175.385 0C171.242 0 167.885 3.357 167.885 7.5V35.728L122.206 73.222C119.005 75.85 118.54 80.576 121.168 83.778C123.795 86.98 128.522 87.445 131.724 84.816L175.385 48.978L267.856 124.88H82.914L108.433 103.933C111.634 101.305 112.099 96.579 109.471 93.377C106.843 90.175 102.117 89.71 98.915 92.339L57.197 126.583C54.749 128.593 53.827 131.925 54.894 134.907C55.961 137.889 58.788 139.88 61.956 139.88H90.075V167.928C90.075 167.935 90.076 167.941 90.076 167.947V268.638C90.076 272.781 93.433 276.138 97.576 276.138C101.719 276.138 105.076 272.781 105.076 268.638V175.428H245.693V316.045C228.562 316.045 119.604 316.045 105.076 316.045V298.624C105.076 294.481 101.719 291.124 97.576 291.124C93.433 291.124 90.076 294.481 90.076 298.624V323.526C90.076 323.533 90.075 323.539 90.075 323.545V497H7.5C3.357 497 0 500.357 0 504.5C0 508.643 3.357 512 7.5 512H504.5C508.643 512 512 508.643 512 504.5C512 500.357 508.643 497 504.5 497V497ZM194.323 424.055H156.446V402.489H194.323V424.055ZM194.323 387.488H156.446V365.922H194.323V387.488ZM156.446 439.055H194.323V460.621H156.446V439.055ZM194.323 331.046V350.922H156.446V331.046H194.323ZM156.446 475.621H194.323V497H156.446V475.621ZM209.323 331.046H245.693V497H209.323V331.046ZM260.693 323.546V297.261H265.988C277.465 297.261 287.12 289.332 289.774 278.665H311.923C296.286 290.21 291.958 312.109 302.486 328.811C309.654 340.181 316.743 341.175 349.723 362.921L314.209 385.312C305.736 390.654 299.851 398.976 297.637 408.746C295.423 418.515 297.146 428.561 302.488 437.034C310.104 449.113 315.154 448.215 390.73 497.001H260.693V323.546ZM397.72 457.077C401.994 450.299 409.314 446.583 416.791 446.583C420.888 446.583 425.034 447.701 428.749 450.041L432.041 452.116C432.042 452.116 432.043 452.117 432.043 452.117C442.535 458.734 445.69 472.653 439.075 483.147C434.928 489.725 427.802 493.652 420.012 493.652C415.783 493.652 411.645 492.452 408.044 490.183C408.043 490.182 408.042 490.181 408.041 490.181L404.739 488.099C394.257 481.479 391.107 467.567 397.72 457.077V457.077ZM403.395 434.055C396.057 436.844 389.531 441.941 385.032 449.077C380.646 456.035 378.706 464.053 379.376 472.107L347.578 452.059C353.807 449.677 354.796 448.116 390.461 425.901L403.395 434.055ZM441.984 367.893C440.656 373.753 437.125 378.747 432.041 381.952C343.527 436.424 345.565 439.538 334.238 439.538C326.455 439.538 319.298 435.57 315.176 429.034C311.971 423.95 310.938 417.922 312.266 412.06C313.594 406.198 317.125 401.206 322.209 398.001L408.039 343.887C411.757 341.543 415.904 340.426 420.005 340.426C427.481 340.426 434.801 344.142 439.072 350.919C442.279 356.003 443.313 362.031 441.984 367.893V367.893ZM406.662 327.888C404.392 328.755 402.174 329.853 400.041 331.197L363.788 354.054L347.58 343.836C353.806 341.455 354.894 339.833 390.465 317.677L406.662 327.888ZM439.074 242.703C445.69 253.198 442.535 267.119 432.04 273.735L346.209 327.844C342.608 330.115 338.469 331.315 334.238 331.315C330.053 331.315 326.064 330.172 322.621 328.102L322.212 327.844C322.151 327.806 322.088 327.776 322.026 327.74C319.313 325.991 316.966 323.649 315.177 320.81C308.561 310.315 311.716 296.394 322.211 289.778L408.041 235.669C411.759 233.326 415.904 232.209 420.004 232.209C427.48 232.209 434.802 235.926 439.074 242.703V242.703ZM265.988 213.603C271.233 213.603 275.501 217.871 275.501 223.116V272.749C275.501 277.994 271.233 282.262 265.988 282.262H260.693V213.604H265.988V213.603ZM105.075 160.428V139.88H245.693V160.428H105.075ZM105.075 331.046H141.446V497H105.075V331.046Z" fill="#E07A5F"/>
</svg>
