<svg width="440" height="480" viewBox="0 0 440 480" fill="none" xmlns="http://www.w3.org/2000/svg">
<path d="M88 40C61.49 40 40 61.49 40 88C40.026 114.499 61.501 135.974 88 136C114.51 136 136 114.51 136 88C136 61.49 114.51 40 88 40ZM88 120C70.327 120 56 105.673 56 88C56 70.327 70.327 56 88 56C105.673 56 120 70.327 120 88C120 105.673 105.673 120 88 120Z" fill="#E07A5F"/>
<path d="M175.664 317.704L127.664 157.704C126.65 154.319 123.534 152 120 152H56C52.466 152 49.35 154.319 48.336 157.704L0.335999 317.704C-0.392001 320.136 0.0769991 322.769 1.6 324.8C3.111 326.814 5.482 328 8 328H40V432C40 436.418 43.582 440 48 440H128C132.418 440 136 436.418 136 432V328H168C172.418 328 176 324.419 176.001 320.001C176.001 319.223 175.887 318.449 175.664 317.704ZM128 312C123.582 312 120 315.582 120 320V424H96V312H80V424H56V320C56 315.582 52.418 312 48 312H18.752L61.952 168H114.048L157.248 312H128Z" fill="#E07A5F"/>
<path d="M360 40C333.49 40 312 61.49 312 88C312 114.51 333.49 136 360 136C386.499 135.974 407.974 114.499 408 88C408 61.49 386.51 40 360 40ZM360 120C342.327 120 328 105.673 328 88C328 70.327 342.327 56 360 56C377.673 56 392 70.327 392 88C392 105.673 377.673 120 360 120Z" fill="#E07A5F"/>
<path d="M384 152H336C305.087 152.035 280.035 177.087 280 208V320C280 324.418 283.582 328 288 328H312V432C312 436.418 315.582 440 320 440H400C404.418 440 408 436.418 408 432V328H432C436.418 328 440 324.418 440 320V208C439.965 177.087 414.914 152.035 384 152ZM424 312H408V216H392V424H368V312H352V424H328V216H312V312H296V208C296.026 185.92 313.92 168.026 336 168H384C406.08 168.026 423.974 185.92 424 208V312Z" fill="#E07A5F"/>
<path d="M232 0H216V480H232V0Z" fill="#E07A5F"/>
</svg>
