<svg width="474" height="334" viewBox="0 0 474 334" fill="none" xmlns="http://www.w3.org/2000/svg">
<path d="M85.1641 309.232H117.164C119.021 309.232 120.801 308.495 122.114 307.182C123.427 305.869 124.164 304.089 124.164 302.232C124.164 300.375 123.427 298.595 122.114 297.282C120.801 295.97 119.021 295.232 117.164 295.232H85.1641C83.3075 295.232 81.5271 295.97 80.2143 297.282C78.9016 298.595 78.1641 300.375 78.1641 302.232C78.1641 304.089 78.9016 305.869 80.2143 307.182C81.5271 308.495 83.3075 309.232 85.1641 309.232V309.232Z" fill="#E07A5F"/>
<path d="M467 211.332H450.524C446.055 191.489 434.45 173.979 417.916 162.132C411.124 157.22 403.411 153.729 395.238 151.869C387.065 150.009 378.601 149.818 370.352 151.308C348.532 155.524 335.728 145.392 320.916 133.652C319.24 132.328 317.548 131.064 315.864 129.764L317.552 125.288C318.206 123.55 318.143 121.624 317.377 119.933C316.611 118.241 315.205 116.923 313.468 116.268L290.6 107.684L312.52 49.364C313.552 49.5229 314.592 49.6164 315.636 49.644C320.587 49.6336 325.417 48.1174 329.486 45.2968C333.555 42.4761 336.669 38.4845 338.416 33.852L342.336 23.452C342.66 22.5916 342.811 21.6758 342.78 20.7571C342.75 19.8383 342.539 18.9345 342.159 18.0973C341.78 17.2601 341.239 16.5059 340.568 15.8777C339.897 15.2494 339.108 14.7596 338.248 14.436L303.14 1.23598C301.402 0.584702 299.477 0.649345 297.787 1.41573C296.096 2.18211 294.779 3.58764 294.124 5.32398L290.208 15.724C288.263 20.845 288.114 26.4744 289.786 31.691C291.457 36.9077 294.849 41.4025 299.408 44.44L277.488 102.756L254.688 94.172C252.95 93.5196 251.025 93.5837 249.334 94.3502C247.644 95.1167 246.326 96.523 245.672 98.26L237.48 120.028L234.916 120.828C217.955 127.173 199.893 130.051 181.8 129.292L174.2 80.492L175.132 80.264C176.049 80.0707 176.917 79.6954 177.686 79.1602C178.456 78.625 179.109 77.9409 179.609 77.1484C180.109 76.3559 180.444 75.4711 180.596 74.5466C180.747 73.622 180.712 72.6763 180.491 71.7658C180.27 70.8552 179.869 69.9982 179.311 69.2456C178.753 68.4929 178.05 67.86 177.243 67.3842C176.436 66.9084 175.541 66.5995 174.612 66.4758C173.684 66.3521 172.74 66.4161 171.836 66.664L168.524 67.464C165.727 59.9523 160.697 53.4775 154.11 48.9107C147.523 44.3438 139.695 41.9042 131.68 41.92C128.527 41.9081 125.385 42.2829 122.324 43.036C112.96 45.2921 104.746 50.8989 99.2334 58.7977C93.7209 66.6965 91.2915 76.3403 92.404 85.908L89.084 86.708C88.1691 86.9033 87.3026 87.2801 86.5358 87.8161C85.7689 88.352 85.1173 89.0362 84.6194 89.8283C84.1215 90.6204 83.7875 91.5042 83.637 92.4276C83.4865 93.3509 83.5226 94.2951 83.7432 95.2043C83.9638 96.1135 84.3644 96.9692 84.9214 97.7209C85.4783 98.4726 86.1803 99.105 86.9859 99.5808C87.7914 100.057 88.6841 100.366 89.6113 100.491C90.5385 100.616 91.4813 100.554 92.384 100.308L93.316 100.084L102.664 128.252C94.3544 131.172 86.4517 135.141 79.148 140.064C54.3528 156.91 36.6014 182.269 29.26 211.332H7C5.14349 211.332 3.36301 212.069 2.05025 213.382C0.737499 214.695 1.14427e-06 216.475 1.14427e-06 218.332V254.332C-0.000524679 255.251 0.180177 256.162 0.531774 257.011C0.88337 257.861 1.39897 258.633 2.04908 259.283C2.6992 259.933 3.47108 260.449 4.3206 260.8C5.17011 261.152 6.0806 261.333 7 261.332H16.668V326.232C16.668 328.089 17.4055 329.869 18.7183 331.182C20.031 332.495 21.8115 333.232 23.668 333.232H450.332C452.189 333.232 453.969 332.495 455.282 331.182C456.594 329.869 457.332 328.089 457.332 326.232V261.332H467C467.919 261.333 468.83 261.152 469.679 260.8C470.529 260.449 471.301 259.933 471.951 259.283C472.601 258.633 473.117 257.861 473.468 257.011C473.82 256.162 474.001 255.251 474 254.332V218.332C474 216.475 473.262 214.695 471.95 213.382C470.637 212.069 468.857 211.332 467 211.332V211.332ZM303.32 20.648L304.772 16.784L326.772 25.06L325.32 28.924C324.353 31.4942 322.405 33.5752 319.904 34.7094C317.403 35.8435 314.555 35.938 311.984 34.972L310.832 34.536C310.768 34.512 310.716 34.472 310.652 34.448C310.588 34.424 310.528 34.42 310.464 34.396L309.364 33.996C306.793 33.03 304.711 31.0823 303.576 28.5813C302.441 26.0804 302.346 23.231 303.312 20.66L303.32 20.648ZM256.324 109.736L272.588 115.856L269.128 125.056C268.804 125.916 268.653 126.832 268.684 127.751C268.714 128.67 268.925 129.573 269.305 130.411C269.684 131.248 270.225 132.002 270.896 132.63C271.567 133.259 272.356 133.748 273.216 134.072C274.076 134.396 274.992 134.546 275.911 134.516C276.83 134.486 277.733 134.275 278.571 133.895C279.408 133.516 280.162 132.975 280.79 132.304C281.419 131.633 281.908 130.844 282.232 129.984L285.688 120.784L301.98 126.916L292.416 152.316C291.752 154.034 290.9 155.673 289.876 157.204C285.351 155.516 280.715 154.143 276 153.096C266.595 151.692 257.003 152.203 247.8 154.6C246.28 151.614 245.4 148.344 245.217 144.998C245.035 141.652 245.553 138.305 246.74 135.172L256.324 109.736ZM109.86 68.12C111.598 65.2562 113.887 62.7662 116.596 60.7948C119.304 58.8233 122.377 57.4097 125.636 56.636C127.614 56.1521 129.644 55.9117 131.68 55.92C136.551 55.9108 141.321 57.3091 145.417 59.9468C149.512 62.5845 152.758 66.3491 154.764 70.788L106.144 82.552C105.905 77.4773 107.2 72.4484 109.86 68.12V68.12ZM106.968 96.788L160.568 83.816L167.4 127.844C163.06 127.204 158.48 126.364 153.616 125.284C141.312 122.519 128.573 122.296 116.18 124.628L106.968 96.788ZM86.936 151.704C96.1006 145.315 106.484 140.885 117.439 138.691C128.393 136.497 139.682 136.586 150.6 138.952C189.152 147.504 212.376 142.432 231.916 136.456C230.563 143.438 231.202 150.66 233.76 157.296C229.5 158.028 224.96 158.696 220.02 159.152C218.184 159.339 216.497 160.243 215.325 161.668C214.152 163.093 213.59 164.923 213.759 166.76C213.929 168.597 214.817 170.293 216.231 171.479C217.645 172.665 219.469 173.244 221.308 173.092C230.021 172.206 238.678 170.84 247.24 169C257.584 166.936 265.748 165.308 273.196 166.82C280.191 168.546 287.043 170.808 293.692 173.584C300.478 176.784 307.74 178.858 315.192 179.724C315.476 179.724 315.756 179.724 316.036 179.704C316.96 179.664 317.867 179.442 318.705 179.049C319.542 178.657 320.294 178.102 320.915 177.418C321.537 176.733 322.018 175.932 322.328 175.061C322.639 174.19 322.774 173.266 322.725 172.342C322.677 171.419 322.445 170.514 322.045 169.68C321.645 168.847 321.083 168.1 320.393 167.485C319.702 166.87 318.897 166.397 318.023 166.095C317.148 165.793 316.223 165.667 315.3 165.724C311.117 165.117 307.038 163.937 303.176 162.22C304.072 160.629 304.853 158.975 305.512 157.272L310.712 143.484C311.212 143.884 311.724 144.252 312.228 144.652C327.524 156.772 344.848 170.508 373.028 165.076C379.441 163.951 386.015 164.131 392.357 165.603C398.699 167.076 404.679 169.812 409.94 173.648C422.743 182.825 431.991 196.136 436.124 211.336H43.728C50.7216 187.021 66.0089 165.923 86.936 151.704V151.704ZM443.336 319.232H30.668V261.332H443.332L443.336 319.232ZM460.004 247.332H14V225.332H460L460.004 247.332Z" fill="#E07A5F"/>
</svg>
