<svg width="481" height="404" viewBox="0 0 481 404" fill="none" xmlns="http://www.w3.org/2000/svg">
<path d="M473 355H446.069L313.519 74.305L319.361 53.857C320.859 48.6132 321.269 43.1186 320.566 37.7106C319.862 32.3026 318.06 27.0956 315.271 22.4094C312.482 17.7233 308.763 13.6571 304.345 10.4606C299.926 7.2642 294.901 5.00503 289.577 3.82198L280.165 1.72998C270.213 -0.470386 259.796 1.207 251.037 6.42031C242.278 11.6336 235.837 19.9905 233.026 29.788L213.251 99H197.18L185.519 74.305L191.361 53.857C192.859 48.6132 193.269 43.1186 192.566 37.7106C191.862 32.3026 190.06 27.0956 187.271 22.4094C184.482 17.7233 180.763 13.6571 176.345 10.4606C171.926 7.2642 166.901 5.00503 161.577 3.82198L151.901 1.67198C142.01 -0.497948 131.664 1.15294 122.94 6.29339C114.216 11.4338 107.758 19.6835 104.863 29.387L1.29999 392.817C1.01331 393.828 0.928611 394.886 1.05072 395.93C1.17283 396.974 1.49935 397.983 2.01165 398.901C2.52395 399.819 3.212 400.627 4.0365 401.278C4.861 401.93 5.80581 402.413 6.81699 402.7C7.82817 402.987 8.88591 403.071 9.92982 402.949C10.9737 402.827 11.9834 402.501 12.9011 401.988C13.8188 401.476 14.6266 400.788 15.2785 399.963C15.9303 399.139 16.4133 398.194 16.7 397.183L28.657 355H140.108L129.308 392.8C129.019 393.81 128.932 394.867 129.052 395.911C129.171 396.955 129.495 397.965 130.005 398.883C130.515 399.802 131.201 400.611 132.024 401.265C132.847 401.918 133.79 402.403 134.8 402.692C135.81 402.981 136.867 403.068 137.911 402.948C138.955 402.829 139.965 402.505 140.883 401.995C141.802 401.485 142.611 400.799 143.265 399.976C143.918 399.153 144.403 398.21 144.692 397.2L196.147 217.108L281.766 398.418C282.414 399.789 283.438 400.947 284.718 401.758C285.999 402.57 287.484 403 289 403H473C475.122 403 477.157 402.157 478.657 400.657C480.157 399.157 481 397.122 481 395V363C481 360.878 480.157 358.843 478.657 357.343C477.157 355.843 475.122 355 473 355ZM248.411 34.184C250.096 28.3046 253.96 23.2893 259.215 20.1612C264.471 17.033 270.722 16.0276 276.693 17.35L286.106 19.441C289.3 20.1509 292.315 21.5064 294.967 23.4243C297.618 25.3422 299.849 27.7819 301.522 30.5936C303.196 33.4052 304.277 36.5294 304.699 39.7742C305.121 43.019 304.875 46.3158 303.976 49.462L298.965 67H239.035L248.411 34.184ZM120.211 33.92C121.948 28.0989 125.822 23.1499 131.056 20.0658C136.29 16.9816 142.496 15.9904 148.43 17.291L158.106 19.441C161.3 20.1508 164.316 21.5064 166.967 23.4244C169.618 25.3423 171.849 27.7822 173.523 30.5939C175.196 33.4057 176.277 36.5301 176.699 39.7749C177.121 43.0198 176.875 46.3167 175.976 49.463L170.966 67H110.435L120.211 33.92ZM60.412 243L69.485 211H181.251L172.108 243H60.412ZM167.537 259L158.394 291H46.8L55.873 259H167.537ZM74.021 195L83.094 163H170.594L185.705 195H74.021ZM87.631 147L96.704 115H147.931L163.042 147H87.631ZM33.193 339L42.266 307H153.823L144.68 339H33.193ZM337 387H294.069L160.234 103.584C159.587 102.213 158.563 101.054 157.282 100.242C156.001 99.4309 154.516 99 153 99H101.24L105.777 83H171.931L305.766 366.416C306.413 367.787 307.437 368.946 308.718 369.757C309.999 370.569 311.484 371 313 371H337V387ZM353 387V363C353 360.878 352.157 358.843 350.657 357.343C349.157 355.843 347.122 355 345 355H318.069L204.736 115H275.931L404.375 387H353ZM465 387H422.069L288.234 103.584C287.587 102.213 286.563 101.054 285.282 100.242C284.001 99.4309 282.516 99 281 99H229.892L234.463 83H299.931L433.766 366.416C434.413 367.787 435.437 368.946 436.718 369.757C437.999 370.569 439.484 371 441 371H465V387Z" fill="#E07A5F"/>
</svg>
