<svg width="480" height="377" viewBox="0 0 480 377" fill="none" xmlns="http://www.w3.org/2000/svg">
<path d="M472 360.02H272V296.02H296C298.121 296.02 300.156 295.176 301.656 293.676C303.16 292.176 304 290.141 304 288.02V248.02C304 245.895 303.16 243.859 301.656 242.359C300.156 240.859 298.121 240.016 296 240.02H272V216.02C272 213.895 271.16 211.859 269.656 210.359C268.156 208.859 266.121 208.016 264 208.02H248V184.02H320C322.121 184.02 324.156 183.176 325.656 181.676C327.16 180.176 328 178.141 328 176.02C327.957 136.27 295.746 104.063 256 104.02H224C184.254 104.063 152.043 136.27 152 176.02C152 178.141 152.84 180.176 154.344 181.676C155.844 183.176 157.879 184.02 160 184.02H232V208.02H216C213.879 208.016 211.844 208.859 210.344 210.359C208.84 211.859 208 213.895 208 216.02V240.02H184C181.879 240.016 179.844 240.859 178.344 242.359C176.84 243.859 176 245.895 176 248.02V288.02C176 290.141 176.84 292.176 178.344 293.676C179.844 295.176 181.879 296.02 184 296.02H208V360.02H8C3.58203 360.02 0 363.602 0 368.02C0 372.438 3.58203 376.02 8 376.02H472C476.418 376.02 480 372.438 480 368.02C480 363.602 476.418 360.02 472 360.02ZM224 120.02H256C283.824 120.051 307.418 140.484 311.43 168.02H168.57C172.582 140.484 196.176 120.051 224 120.02ZM224 224.02H256V240.02H224V224.02ZM192 256.02H288V280.02H192V256.02ZM224 360.02V296.02H256V360.02H224Z" fill="#E07A5F"/>
<path d="M114.344 93.6758C117.477 96.75 122.5 96.7266 125.605 93.6211C128.707 90.5195 128.73 85.4922 125.656 82.3633L109.656 66.3633C106.523 63.2851 101.5 63.3086 98.3946 66.4141C95.293 69.5156 95.2696 74.543 98.3438 77.6758L114.344 93.6758Z" fill="#E07A5F"/>
<path d="M85.6563 42.3633L77.6563 34.3633C74.5235 31.2851 69.5 31.3086 66.3946 34.4141C63.293 37.5156 63.2696 42.543 66.3438 45.6758L74.3438 53.6758C77.4766 56.75 82.5 56.7266 85.6055 53.6211C88.7071 50.5195 88.7305 45.4922 85.6563 42.3633Z" fill="#E07A5F"/>
<path d="M42.3438 21.6758C45.4766 24.75 50.5 24.7266 53.6055 21.6211C56.7071 18.5195 56.7305 13.4922 53.6563 10.3633L45.6563 2.36327C42.5235 -0.714852 37.5 -0.691414 34.3946 2.41405C31.293 5.51562 31.2696 10.543 34.3438 13.6758L42.3438 21.6758Z" fill="#E07A5F"/>
<path d="M114.344 194.363L98.3438 210.363C96.293 212.375 95.4805 215.336 96.2149 218.117C96.9531 220.895 99.1211 223.066 101.902 223.801C104.68 224.539 107.641 223.727 109.656 221.676L125.656 205.676C128.73 202.543 128.707 197.516 125.605 194.414C122.5 191.309 117.477 191.285 114.344 194.363Z" fill="#E07A5F"/>
<path d="M72 256.02C74.1211 256.02 76.1563 255.176 77.6563 253.676L85.6563 245.676C88.7305 242.543 88.7071 237.516 85.6055 234.414C82.5 231.309 77.4766 231.285 74.3438 234.363L66.3438 242.363C64.0586 244.648 63.3711 248.09 64.6094 251.078C65.8477 254.066 68.7656 256.016 72 256.02Z" fill="#E07A5F"/>
<path d="M34.3438 285.676C37.4688 288.801 42.5312 288.801 45.6562 285.676L53.6562 277.676C56.7461 274.543 56.7305 269.508 53.6211 266.398C50.5117 263.289 45.4727 263.273 42.3438 266.363L34.3438 274.363C31.2188 277.484 31.2188 282.551 34.3438 285.676Z" fill="#E07A5F"/>
<path d="M136 144.02C136 141.895 135.16 139.859 133.656 138.359C132.156 136.859 130.121 136.016 128 136.02H104C99.582 136.02 96 139.602 96 144.02C96 148.438 99.582 152.02 104 152.02H128C130.121 152.02 132.156 151.176 133.656 149.676C135.16 148.176 136 146.141 136 144.02Z" fill="#E07A5F"/>
<path d="M80 144.02C80 141.895 79.1602 139.859 77.6562 138.359C76.1562 136.859 74.1211 136.016 72 136.02H48C43.582 136.02 40 139.602 40 144.02C40 148.438 43.582 152.02 48 152.02H72C74.1211 152.02 76.1562 151.176 77.6562 149.676C79.1602 148.176 80 146.141 80 144.02Z" fill="#E07A5F"/>
<path d="M381.656 66.3633C378.531 63.2383 373.469 63.2383 370.344 66.3633L354.344 82.3633C352.301 84.3789 351.496 87.3359 352.234 90.1094C352.969 92.8828 355.137 95.0469 357.91 95.7852C360.684 96.5195 363.641 95.7148 365.656 93.6758L381.656 77.6758C384.781 74.5508 384.781 69.4844 381.656 66.3633Z" fill="#E07A5F"/>
<path d="M400 56.0195C402.121 56.0195 404.156 55.1758 405.656 53.6758L413.656 45.6758C415.707 43.6602 416.52 40.6992 415.785 37.918C415.047 35.1406 412.879 32.9688 410.098 32.2344C407.32 31.5 404.359 32.3125 402.344 34.3633L394.344 42.3633C392.059 44.6485 391.371 48.0899 392.609 51.0781C393.848 54.0664 396.766 56.0156 400 56.0195Z" fill="#E07A5F"/>
<path d="M445.656 2.36328C442.531 -0.761719 437.469 -0.761719 434.344 2.36328L426.344 10.3633C424.301 12.3789 423.496 15.3359 424.234 18.1094C424.969 20.8828 427.137 23.0469 429.91 23.7852C432.684 24.5195 435.641 23.7148 437.656 21.6758L445.656 13.6758C448.781 10.5508 448.781 5.48438 445.656 2.36328V2.36328Z" fill="#E07A5F"/>
<path d="M365.656 194.363C362.523 191.285 357.5 191.309 354.394 194.414C351.293 197.516 351.269 202.543 354.344 205.676L370.344 221.676C373.477 224.75 378.5 224.727 381.605 221.621C384.707 218.52 384.73 213.492 381.656 210.363L365.656 194.363Z" fill="#E07A5F"/>
<path d="M394.344 245.676L402.344 253.676C405.477 256.75 410.5 256.727 413.605 253.621C416.707 250.52 416.73 245.492 413.656 242.363L405.656 234.363C402.523 231.285 397.5 231.309 394.394 234.414C391.293 237.516 391.269 242.543 394.344 245.676V245.676Z" fill="#E07A5F"/>
<path d="M434.344 285.676C437.477 288.75 442.5 288.727 445.605 285.621C448.707 282.519 448.73 277.492 445.656 274.363L437.656 266.363C434.523 263.285 429.5 263.309 426.394 266.414C423.293 269.516 423.269 274.543 426.344 277.676L434.344 285.676Z" fill="#E07A5F"/>
<path d="M376 136.02H352C347.582 136.02 344 139.602 344 144.02C344 148.438 347.582 152.02 352 152.02H376C380.418 152.02 384 148.438 384 144.02C384 139.602 380.418 136.02 376 136.02Z" fill="#E07A5F"/>
<path d="M440 144.02C440 141.895 439.16 139.859 437.656 138.359C436.156 136.859 434.121 136.016 432 136.02H408C403.582 136.02 400 139.602 400 144.02C400 148.438 403.582 152.02 408 152.02H432C434.121 152.02 436.156 151.176 437.656 149.676C439.16 148.176 440 146.141 440 144.02Z" fill="#E07A5F"/>
<path d="M196.422 48.8633C192.469 50.8359 190.867 55.6445 192.844 59.5976L200.844 75.5976C202.824 79.5351 207.625 81.1289 211.57 79.1562C215.516 77.1836 217.121 72.3906 215.156 68.4414L207.156 52.4414C205.172 48.4961 200.375 46.8945 196.422 48.8633Z" fill="#E07A5F"/>
<path d="M172.422 0.863273C168.469 2.83593 166.867 7.64452 168.844 11.5976L176.844 27.5976C178.824 31.5351 183.625 33.1289 187.57 31.1562C191.516 29.1836 193.121 24.3906 191.156 20.4414L183.156 4.4414C181.18 0.488272 176.375 -1.10938 172.422 0.863273V0.863273Z" fill="#E07A5F"/>
<path d="M272.844 52.4414L264.844 68.4414C262.879 72.3906 264.484 77.1836 268.43 79.1563C272.375 81.1289 277.176 79.5352 279.156 75.5977L287.156 59.5977C289.121 55.6445 287.516 50.8516 283.57 48.8789C279.625 46.9063 274.824 48.5 272.844 52.4414Z" fill="#E07A5F"/>
<path d="M296.844 4.44142L288.844 20.4414C286.879 24.3906 288.484 29.1836 292.43 31.1563C296.375 33.1289 301.176 31.5352 303.156 27.5977L311.156 11.5977C312.441 9.03907 312.266 5.98829 310.688 3.59767C309.113 1.20704 306.379 -0.160146 303.523 0.0156355C300.664 0.18751 298.117 1.87501 296.844 4.44142V4.44142Z" fill="#E07A5F"/>
</svg>
