<svg width="512" height="512" viewBox="0 0 512 512" fill="none" xmlns="http://www.w3.org/2000/svg">
<path d="M256 103.443C221.402 103.443 188.78 114.736 161.661 136.101C158.305 138.745 157.728 143.61 160.372 146.967C163.016 150.323 167.881 150.899 171.238 148.256C195.601 129.062 224.911 118.917 256 118.917C331.588 118.917 393.084 180.412 393.084 256.001C393.084 331.59 331.588 393.084 256 393.084C180.412 393.084 118.916 331.589 118.916 256C118.916 224.49 129.308 194.87 148.97 170.338C151.642 167.004 151.105 162.135 147.771 159.462C144.437 156.789 139.567 157.326 136.896 160.661C115.323 187.578 103.442 221.437 103.442 256.001C103.442 340.121 171.879 408.558 255.999 408.558C340.119 408.558 408.557 340.12 408.557 256C408.557 171.88 340.12 103.443 256 103.443Z" fill="#E07A5F"/>
<path d="M256 0C251.727 0 248.263 3.463 248.263 7.737V49.112C248.263 53.386 251.727 56.849 256 56.849C260.273 56.849 263.737 53.386 263.737 49.112V7.737C263.737 3.463 260.273 0 256 0Z" fill="#E07A5F"/>
<path d="M159.256 72.962L138.569 37.131C136.433 33.43 131.702 32.165 128 34.299C124.3 36.435 123.032 41.167 125.168 44.868L145.855 80.699C147.288 83.181 149.889 84.568 152.562 84.568C153.874 84.568 155.205 84.234 156.423 83.53C160.125 81.394 161.393 76.662 159.256 72.962Z" fill="#E07A5F"/>
<path d="M80.698 145.856L44.866 125.169C41.166 123.034 36.434 124.299 34.297 128.001C32.161 131.701 33.428 136.433 37.129 138.57L72.961 159.257C74.179 159.96 75.51 160.295 76.822 160.295C79.496 160.295 82.096 158.908 83.529 156.426C85.668 152.724 84.399 147.993 80.698 145.856Z" fill="#E07A5F"/>
<path d="M49.112 248.263H7.737C3.464 248.263 0 251.726 0 256C0 260.274 3.464 263.737 7.737 263.737H49.113C53.386 263.737 56.85 260.274 56.85 256C56.85 251.726 53.385 248.263 49.112 248.263Z" fill="#E07A5F"/>
<path d="M83.53 355.575C81.394 351.875 76.663 350.609 72.961 352.743L37.13 373.431C33.43 375.567 32.162 380.299 34.298 384C35.731 386.482 38.331 387.869 41.005 387.869C42.317 387.869 43.648 387.535 44.866 386.831L80.698 366.144C84.399 364.007 85.667 359.276 83.53 355.575Z" fill="#E07A5F"/>
<path d="M156.425 428.47C152.725 426.335 147.993 427.6 145.856 431.302L125.169 467.134C123.033 470.834 124.3 475.566 128.001 477.702C129.219 478.406 130.55 478.74 131.862 478.74C134.536 478.74 137.136 477.353 138.569 474.871L159.256 439.039C161.393 435.338 160.125 430.606 156.425 428.47Z" fill="#E07A5F"/>
<path d="M256 455.152C251.727 455.152 248.263 458.615 248.263 462.889V504.264C248.263 508.538 251.727 512.001 256 512.001C260.273 512.001 263.737 508.538 263.737 504.264V462.889C263.737 458.615 260.273 455.152 256 455.152Z" fill="#E07A5F"/>
<path d="M386.831 467.134L366.144 431.302C364.008 427.601 359.276 426.336 355.575 428.47C351.875 430.606 350.607 435.338 352.743 439.038L373.43 474.87C374.863 477.352 377.464 478.739 380.137 478.739C381.449 478.739 382.78 478.405 383.998 477.701C387.7 475.566 388.968 470.834 386.831 467.134Z" fill="#E07A5F"/>
<path d="M474.87 373.431L439.038 352.744C435.338 350.609 430.606 351.874 428.469 355.576C426.333 359.276 427.6 364.008 431.301 366.145L467.133 386.832C468.351 387.536 469.682 387.87 470.994 387.87C473.668 387.87 476.268 386.483 477.701 384.001C479.839 380.299 478.571 375.567 474.87 373.431Z" fill="#E07A5F"/>
<path d="M504.263 248.263H462.887C458.614 248.263 455.15 251.726 455.15 256C455.15 260.274 458.614 263.737 462.887 263.737H504.263C508.536 263.737 512 260.274 512 256C512 251.726 508.536 248.263 504.263 248.263Z" fill="#E07A5F"/>
<path d="M477.702 128C475.566 124.299 470.834 123.034 467.134 125.168L431.302 145.855C427.602 147.991 426.334 152.723 428.47 156.424C429.903 158.906 432.503 160.293 435.177 160.293C436.489 160.293 437.82 159.959 439.038 159.255L474.87 138.568C478.571 136.433 479.838 131.701 477.702 128Z" fill="#E07A5F"/>
<path d="M384 34.299C380.3 32.164 375.568 33.429 373.431 37.131L352.744 72.962C350.608 76.661 351.875 81.393 355.576 83.531C356.794 84.234 358.125 84.569 359.437 84.569C362.111 84.569 364.711 83.182 366.144 80.7L386.831 44.869C388.968 41.167 387.7 36.435 384 34.299Z" fill="#E07A5F"/>
</svg>
