<svg width="512" height="512" viewBox="0 0 512 512" fill="none" xmlns="http://www.w3.org/2000/svg">
<path d="M494.398 456.593H491.459L478.022 167.402C477.829 163.265 474.306 160.056 470.182 160.258C466.044 160.45 462.845 163.96 463.037 168.098L476.442 456.593H449.03L430.122 49.582C429.935 45.58 426.637 42.43 422.63 42.43H366.031V15H438.01C448.058 15 456.293 22.861 456.758 32.898L461.418 133.148C461.611 137.286 465.082 140.497 469.259 140.292C473.397 140.1 476.595 136.59 476.403 132.452L471.743 32.202C470.904 14.145 456.087 0 438.01 0H73.99C55.912 0 41.095 14.145 40.258 32.202L20.541 456.593H17.602C7.896 456.593 0 464.49 0 474.195V494.398C0 504.104 7.896 512 17.602 512H78.212C87.918 512 95.814 504.104 95.814 494.398V474.195C95.814 464.489 87.918 456.593 78.212 456.593H77.987L85.013 305.388C85.205 301.25 82.007 297.74 77.869 297.548C73.75 297.348 70.222 300.554 70.029 304.692L62.97 456.593H35.556L55.242 32.897C55.707 22.861 63.942 15 73.99 15H145.968V42.43H89.37C85.363 42.43 82.064 45.579 81.878 49.582L71.649 269.732C71.457 273.87 74.655 277.38 78.793 277.572C82.936 277.786 86.441 274.566 86.633 270.428L96.53 57.43H167.182V365.68H154.98C145.275 365.68 137.38 373.575 137.38 383.28V405.5C137.38 415.21 145.276 423.11 154.98 423.11H221C225.142 423.11 228.5 419.752 228.5 415.61C228.5 411.468 225.142 408.11 221 408.11H154.98C153.546 408.11 152.38 406.939 152.38 405.5V383.28C152.38 381.846 153.547 380.68 154.98 380.68H336.803H336.809H336.817H357.02C358.454 380.68 359.621 381.846 359.621 383.28V405.5C359.621 406.939 358.454 408.11 357.02 408.11H256C251.858 408.11 248.5 411.468 248.5 415.61C248.5 419.752 251.858 423.11 256 423.11H357.02C366.725 423.11 374.621 415.21 374.621 405.5V383.28C374.621 373.575 366.725 365.68 357.02 365.68H344.819V57.43H415.47L434.014 456.593H433.79C424.084 456.593 416.187 464.489 416.187 474.195V494.398C416.187 504.104 424.083 512 433.79 512H494.399C504.104 512 512.001 504.104 512.001 494.398V474.195C512 464.49 504.104 456.593 494.398 456.593V456.593ZM80.813 474.195V494.398C80.813 495.833 79.646 497 78.211 497H17.601C16.166 497 14.999 495.833 14.999 494.398V474.195C14.999 472.76 16.166 471.593 17.601 471.593H78.211C79.646 471.593 80.813 472.761 80.813 474.195ZM351.031 42.43H323.604V15H351.031V42.43ZM203.396 42.43V15H308.605V42.43H203.396ZM160.968 15H188.395V42.43H160.968V15ZM184.873 365.68L208.836 273.022C210.286 267.415 215.343 263.5 221.134 263.5H290.864C296.655 263.5 301.713 267.416 303.163 273.022L327.127 365.68H184.873ZM329.818 316.179L317.685 269.266C314.524 257.039 303.495 248.499 290.865 248.499H221.135C208.505 248.499 197.476 257.039 194.314 269.266L182.182 316.176V57.43H329.818V316.179ZM497 494.398C497 495.833 495.833 497 494.398 497H433.789C432.354 497 431.186 495.833 431.186 494.398V474.195C431.186 472.76 432.354 471.593 433.789 471.593H494.398C495.833 471.593 497 472.76 497 474.195V494.398Z" fill="#E07A5F"/>
</svg>
