<svg width="486" height="417" viewBox="0 0 486 417" fill="none" xmlns="http://www.w3.org/2000/svg">
<path d="M462 337H398V241C397.974 217.669 388.694 195.301 372.196 178.804C355.699 162.306 333.331 153.026 310 153H229.561C231.853 147.103 232.546 140.706 231.57 134.455C230.593 128.205 227.982 122.323 224 117.407V112C224 82.2958 212.2 53.8081 191.196 32.804C170.192 11.8 141.704 0 112 0C82.2958 0 53.8082 11.8 32.8041 32.804C11.8 53.8081 5.93426e-05 82.2958 5.88999e-05 112V152C-0.0397489 174.124 6.48862 195.761 18.758 214.171C31.0273 232.581 48.4854 246.935 68.9201 255.413C69.2771 255.562 69.6411 255.693 70.0001 255.838V310.309L30.4631 362.416C23.1864 365.628 17.0002 370.886 12.6571 377.55C8.31401 384.214 6.00119 391.996 6.00006 399.95V409C6.00006 411.122 6.84291 413.157 8.3432 414.657C9.8435 416.157 11.8783 417 14.0001 417H70.0001C71.1849 417 72.3549 416.737 73.4255 416.229C74.4962 415.722 75.4408 414.983 76.1911 414.066L148.191 326.066C149.361 324.637 150 322.847 150 321V316.5C154.301 319.371 158.781 321.965 163.413 324.264L134.462 362.423C127.2 365.653 121.027 370.915 116.686 377.573C112.346 384.232 110.024 392.004 110 399.952V409C110 411.122 110.843 413.157 112.343 414.657C113.843 416.157 115.878 417 118 417H174C175.2 417 176.384 416.731 177.465 416.212C178.547 415.692 179.497 414.936 180.247 414L241.847 337H253.163L250.342 365.234C249.589 372.748 250.655 380.333 253.45 387.349C256.245 394.365 260.687 400.605 266.401 405.543C272.115 410.481 278.933 413.971 286.279 415.72C293.626 417.469 301.285 417.425 308.611 415.591L327.804 410.791C333.606 413.995 339.99 416.009 346.581 416.713C353.172 417.417 359.837 416.797 366.185 414.891L401.3 404.364L402.708 406.477C404.648 409.386 407.208 411.829 410.206 413.629C413.204 415.429 416.564 416.541 420.043 416.885C423.523 417.23 427.035 416.798 430.328 415.62C433.62 414.443 436.61 412.55 439.082 410.077C440.325 408.832 441.427 407.453 442.367 405.965L442.708 406.476C445.522 410.694 449.619 413.895 454.392 415.606C459.166 417.317 464.363 417.448 469.216 415.978C474.069 414.509 478.321 411.517 481.344 407.445C484.366 403.374 485.998 398.438 486 393.367V361C485.993 354.637 483.462 348.537 478.962 344.038C474.463 339.538 468.363 337.007 462 337V337ZM382 241V253.261C375.101 247.072 366.556 243.014 357.399 241.579C348.242 240.143 338.866 241.391 330.403 245.171C321.941 248.952 314.755 255.103 309.714 262.881C304.673 270.659 301.994 279.731 302 289V321H286V169H310C329.089 169.021 347.39 176.614 360.888 190.112C374.386 203.61 381.979 221.911 382 241V241ZM16.0001 152V112C16.0096 87.0653 25.7205 63.1126 43.0776 45.2109C60.4347 27.3093 84.076 16.8633 108.999 16.0837C133.921 15.3041 158.169 24.252 176.611 41.0339C195.053 57.8157 206.242 81.1147 207.81 106C204.014 104.675 200.021 103.999 196 104H192V120H196C201.304 120 206.391 122.107 210.142 125.858C213.893 129.609 216 134.696 216 140C216 145.304 213.893 150.391 210.142 154.142C206.391 157.893 201.304 160 196 160H192V176H196C199.124 176 202.234 175.593 205.252 174.789C199.884 196.751 186.938 216.114 168.695 229.468C150.452 242.822 128.081 249.31 105.524 247.789C105.396 247.774 105.267 247.761 105.136 247.753C80.9147 246.047 58.2428 235.215 41.6984 217.442C25.154 199.67 15.9697 176.281 16.0001 152V152ZM66.2091 401H22.0001V399.95C22.0008 394.846 23.5618 389.865 26.4738 385.674C29.3857 381.482 33.5095 378.281 38.2921 376.5C39.7183 375.972 40.9642 375.047 41.8831 373.835L84.3731 317.835C85.4285 316.444 85.9999 314.746 86.0001 313V260.964C91.785 262.337 97.6704 263.246 103.6 263.681C103.739 263.698 103.881 263.711 104.022 263.721C104.451 263.751 104.879 263.763 105.308 263.788L110.563 273.421C116.721 284.708 124.632 294.946 134 303.753V318.144L66.2091 401ZM230 326.194L170.155 401H126V399.952C126.015 394.85 127.582 389.874 130.494 385.685C133.406 381.496 137.523 378.292 142.3 376.5C143.724 375.97 144.967 375.046 145.885 373.836L188.372 317.836C189.428 316.445 190 314.746 190 313V273H174V310.309L173.3 311.237C152.599 301.715 135.524 285.765 124.616 265.759L123.338 263.416C125.013 263.246 126.678 263.052 128.318 262.807C152.014 259.32 173.967 248.328 190.955 231.444C207.942 214.56 219.068 192.674 222.7 169H270V321H246V273H230V326.194ZM304.718 400.072C299.882 401.28 294.827 401.307 289.978 400.151C285.13 398.995 280.631 396.69 276.86 393.43C273.089 390.17 270.158 386.051 268.313 381.421C266.468 376.791 265.764 371.785 266.26 366.825L269.24 337H302V367.143C301.992 378.371 305.794 389.269 312.784 398.056L304.718 400.072ZM422.37 401C420.698 400.998 419.072 400.446 417.745 399.429L429.568 395.882C429.048 397.377 428.075 398.673 426.785 399.59C425.495 400.507 423.951 401 422.368 401H422.37ZM470 393.367C470 395.005 469.473 396.6 468.497 397.916C467.52 399.231 466.147 400.198 464.579 400.672C463.011 401.147 461.332 401.105 459.79 400.552C458.248 399.999 456.925 398.964 456.016 397.601L444.656 380.562C443.706 379.136 442.322 378.053 440.71 377.473C439.098 376.892 437.342 376.845 435.701 377.337L361.585 399.572C356.53 401.089 351.19 401.402 345.991 400.488C340.793 399.574 335.881 397.457 331.646 394.306C327.412 391.156 323.972 387.059 321.603 382.342C319.234 377.626 318 372.421 318 367.143V289C318 280.513 321.371 272.374 327.373 266.373C333.374 260.371 341.513 257 350 257C358.487 257 366.626 260.371 372.627 266.373C378.629 272.374 382 280.513 382 289V345C382 347.122 382.843 349.157 384.343 350.657C385.843 352.157 387.878 353 390 353H462C464.121 353.002 466.155 353.846 467.654 355.346C469.154 356.846 469.998 358.879 470 361V393.367Z" fill="#E07A5F"/>
<path d="M48 168C56.8366 168 64 160.837 64 152C64 143.163 56.8366 136 48 136C39.1634 136 32 143.163 32 152C32 160.837 39.1634 168 48 168Z" fill="#E07A5F"/>
<path d="M144 168C152.837 168 160 160.837 160 152C160 143.163 152.837 136 144 136C135.163 136 128 143.163 128 152C128 160.837 135.163 168 144 168Z" fill="#E07A5F"/>
<path d="M96 208C102.363 207.993 108.463 205.462 112.963 200.963C117.462 196.463 119.993 190.363 120 184H104C104 186.122 103.157 188.157 101.657 189.657C100.157 191.157 98.1217 192 96 192C93.8783 192 91.8434 191.157 90.3431 189.657C88.8429 188.157 88 186.122 88 184H72C72.0071 190.363 74.538 196.463 79.0373 200.963C83.5367 205.462 89.637 207.993 96 208V208Z" fill="#E07A5F"/>
<path d="M96.093 111.488C97.4222 111.988 98.8605 112.125 100.26 111.885C101.66 111.646 102.971 111.038 104.058 110.124C105.145 109.21 105.969 108.023 106.446 106.686C106.922 105.348 107.034 103.907 106.77 102.512L105.455 95.567C104.703 91.9384 104.745 88.1901 105.578 84.5792C106.411 80.9682 108.014 77.5801 110.279 74.647C112.445 71.8638 115.187 69.5821 118.317 67.9585C121.448 66.3349 124.893 65.4079 128.415 65.241L127.505 49.268C121.714 49.5848 116.058 51.1336 110.913 53.8111C105.769 56.4885 101.255 60.2328 97.673 64.794C92.0859 72.0046 89.0284 80.8543 88.973 89.976C86.5942 88.0089 84.666 85.5535 83.319 82.776C79.526 75.281 78.94 66.784 81.79 60.602L67.259 53.902C62.34 64.575 63.007 78.068 69.042 90.002C75.565 102.892 85.982 107.684 96.093 111.488Z" fill="#E07A5F"/>
</svg>
