<svg width="1024" height="197" viewBox="0 0 1024 197" fill="none" xmlns="http://www.w3.org/2000/svg">
<mask id="mask0" mask-type="alpha" maskUnits="userSpaceOnUse" x="0" y="0" width="1024" height="197">
<rect width="1024" height="197" fill="#C4C4C4"/>
</mask>
<g mask="url(#mask0)">
<path d="M188.815 60.9658C116.143 72.2501 68.1308 103.706 -1.59654 186.882L-1.59651 -0.50001L1026.93 -0.49999L1026.93 134.049C959.909 169.59 885.332 186.284 809.105 147.387C731.045 81.8129 685.274 191.65 587.338 80.7604C489.401 -30.1292 428.139 135.184 351.424 121.766C274.71 108.349 268.655 58.4176 188.815 60.9658Z" fill="white"/>
<path d="M-29 173.786C47.1916 82.8989 99.655 48.5272 179.064 36.1968C266.306 33.4124 272.922 87.9728 356.748 102.634C440.575 117.295 507.517 -63.3434 614.533 57.8265C721.549 178.996 771.563 58.9766 856.859 130.629C940.153 173.133 1021.64 154.891 1094.87 116.055" stroke="#F2CC8F" stroke-width="3"/>
</g>
</svg>
