<svg width="280" height="900" viewBox="0 0 280 900" fill="none" xmlns="http://www.w3.org/2000/svg">
<mask id="mask0" mask-type="alpha" maskUnits="userSpaceOnUse" x="0" y="0" width="280" height="900">
<rect width="280" height="900" fill="#C4C4C4"/>
</mask>
<g mask="url(#mask0)">
<path fill-rule="evenodd" clip-rule="evenodd" d="M258 1.94608e-05L2.00001 3.4402e-06L2.00002 900L29.3071 900C37.5134 885.863 47.4233 872.026 57.3333 858.19C73.7073 835.328 90.0812 812.466 98.7703 788.249C117.41 737.337 102.782 680.559 88.1529 623.782C86.3372 616.734 84.5215 609.687 82.7694 602.651C67.2951 538.997 56.0543 476.089 98.2735 422.608C114.98 401.102 140.298 381.115 165.615 361.128C203.381 331.313 241.148 301.498 250.332 266.643C260.374 228.537 237.096 184.556 213.817 140.574C201.53 117.359 189.243 94.1435 181.856 71.7921C173.648 46.2914 171.839 21.919 173.321 0.0015282L258 0.00150709L258 1.94608e-05Z" fill="white"/>
<path d="M159.851 -0.498492C159.824 17.7601 162.297 37.4159 168.856 57.7921C190.237 122.488 252.674 194.423 237.332 252.643C221.991 310.864 126.902 355.022 85.2735 408.608C43.0542 462.089 54.295 524.997 69.7693 588.651C85.6375 652.374 106.724 717.018 85.7702 774.249C70.0384 818.094 29.1157 857.498 8.6108 900.502" stroke="#F2CC8F" stroke-width="3"/>
</g>
</svg>
